<svg xmlns="http://www.w3.org/2000/svg" width="180" height="180" viewBox="0 0 180 180">
  <rect width="180" height="180" rx="36" fill="#1a1a2e"/>
  <line x1="90" y1="45" x2="56.25" y2="101.25" stroke="rgba(148, 163, 184, 0.6)" stroke-width="0.84375" stroke-linecap="round"/><line x1="90" y1="45" x2="123.75" y2="101.25" stroke="rgba(148, 163, 184, 0.6)" stroke-width="0.84375" stroke-linecap="round"/><line x1="56.25" y1="101.25" x2="90" y2="129.375" stroke="rgba(148, 163, 184, 0.6)" stroke-width="0.84375" stroke-linecap="round"/><line x1="123.75" y1="101.25" x2="90" y2="129.375" stroke="rgba(148, 163, 184, 0.6)" stroke-width="0.84375" stroke-linecap="round"/><line x1="56.25" y1="101.25" x2="123.75" y2="101.25" stroke="rgba(148, 163, 184, 0.6)" stroke-width="0.84375" stroke-linecap="round"/>
  <circle cx="90" cy="45" r="9" fill="#60a5fa" opacity="0.3"/><circle cx="90" cy="45" r="7.875" fill="#60a5fa"/><circle cx="88.03125" cy="43.03125" r="2.7562499999999996" fill="rgba(255,255,255,0.25)"/><circle cx="56.25" cy="101.25" r="7.875" fill="#34d399" opacity="0.3"/><circle cx="56.25" cy="101.25" r="6.75" fill="#34d399"/><circle cx="54.5625" cy="99.5625" r="2.3625" fill="rgba(255,255,255,0.25)"/><circle cx="123.75" cy="101.25" r="7.875" fill="#34d399" opacity="0.3"/><circle cx="123.75" cy="101.25" r="6.75" fill="#34d399"/><circle cx="122.0625" cy="99.5625" r="2.3625" fill="rgba(255,255,255,0.25)"/><circle cx="90" cy="129.375" r="6.75" fill="#a78bfa" opacity="0.3"/><circle cx="90" cy="129.375" r="5.625" fill="#a78bfa"/><circle cx="88.59375" cy="127.96875" r="1.9687499999999998" fill="rgba(255,255,255,0.25)"/>
</svg>