<svg xmlns="http://www.w3.org/2000/svg" width="180" height="180" viewBox="0 0 180 180">
  <rect width="180" height="180" rx="27" fill="#1a1a2e"/>
  <line x1="90" y1="33.75" x2="47.8125" y2="104.0625" stroke="rgba(148, 163, 184, 0.6)" stroke-width="1.0546875" stroke-linecap="round"/><line x1="90" y1="33.75" x2="132.1875" y2="104.0625" stroke="rgba(148, 163, 184, 0.6)" stroke-width="1.0546875" stroke-linecap="round"/><line x1="47.8125" y1="104.0625" x2="90" y2="139.21875" stroke="rgba(148, 163, 184, 0.6)" stroke-width="1.0546875" stroke-linecap="round"/><line x1="132.1875" y1="104.0625" x2="90" y2="139.21875" stroke="rgba(148, 163, 184, 0.6)" stroke-width="1.0546875" stroke-linecap="round"/><line x1="47.8125" y1="104.0625" x2="132.1875" y2="104.0625" stroke="rgba(148, 163, 184, 0.6)" stroke-width="1.0546875" stroke-linecap="round"/>
  <circle cx="90" cy="33.75" r="11.25" fill="#60a5fa" opacity="0.3"/><circle cx="90" cy="33.75" r="9.84375" fill="#60a5fa"/><circle cx="87.5390625" cy="31.2890625" r="3.4453125" fill="rgba(255,255,255,0.25)"/><circle cx="47.8125" cy="104.0625" r="9.84375" fill="#34d399" opacity="0.3"/><circle cx="47.8125" cy="104.0625" r="8.4375" fill="#34d399"/><circle cx="45.703125" cy="101.953125" r="2.953125" fill="rgba(255,255,255,0.25)"/><circle cx="132.1875" cy="104.0625" r="9.84375" fill="#34d399" opacity="0.3"/><circle cx="132.1875" cy="104.0625" r="8.4375" fill="#34d399"/><circle cx="130.078125" cy="101.953125" r="2.953125" fill="rgba(255,255,255,0.25)"/><circle cx="90" cy="139.21875" r="8.4375" fill="#a78bfa" opacity="0.3"/><circle cx="90" cy="139.21875" r="7.03125" fill="#a78bfa"/><circle cx="88.2421875" cy="137.4609375" r="2.4609375" fill="rgba(255,255,255,0.25)"/>
</svg>