<svg xmlns="http://www.w3.org/2000/svg" width="192" height="192" viewBox="0 0 192 192">
  <rect width="192" height="192" rx="28.799999999999997" fill="#1a1a2e"/>
  <line x1="96" y1="36" x2="51" y2="111" stroke="rgba(148, 163, 184, 0.6)" stroke-width="1.125" stroke-linecap="round"/><line x1="96" y1="36" x2="141" y2="111" stroke="rgba(148, 163, 184, 0.6)" stroke-width="1.125" stroke-linecap="round"/><line x1="51" y1="111" x2="96" y2="148.5" stroke="rgba(148, 163, 184, 0.6)" stroke-width="1.125" stroke-linecap="round"/><line x1="141" y1="111" x2="96" y2="148.5" stroke="rgba(148, 163, 184, 0.6)" stroke-width="1.125" stroke-linecap="round"/><line x1="51" y1="111" x2="141" y2="111" stroke="rgba(148, 163, 184, 0.6)" stroke-width="1.125" stroke-linecap="round"/>
  <circle cx="96" cy="36" r="12" fill="#60a5fa" opacity="0.3"/><circle cx="96" cy="36" r="10.5" fill="#60a5fa"/><circle cx="93.375" cy="33.375" r="3.675" fill="rgba(255,255,255,0.25)"/><circle cx="51" cy="111" r="10.5" fill="#34d399" opacity="0.3"/><circle cx="51" cy="111" r="9" fill="#34d399"/><circle cx="48.75" cy="108.75" r="3.15" fill="rgba(255,255,255,0.25)"/><circle cx="141" cy="111" r="10.5" fill="#34d399" opacity="0.3"/><circle cx="141" cy="111" r="9" fill="#34d399"/><circle cx="138.75" cy="108.75" r="3.15" fill="rgba(255,255,255,0.25)"/><circle cx="96" cy="148.5" r="9" fill="#a78bfa" opacity="0.3"/><circle cx="96" cy="148.5" r="7.5" fill="#a78bfa"/><circle cx="94.125" cy="146.625" r="2.625" fill="rgba(255,255,255,0.25)"/>
</svg>