<svg xmlns="http://www.w3.org/2000/svg" width="512" height="512" viewBox="0 0 512 512">
  <rect width="512" height="512" rx="76.8" fill="#1a1a2e"/>
  <line x1="256" y1="96" x2="136" y2="296" stroke="rgba(148, 163, 184, 0.6)" stroke-width="3" stroke-linecap="round"/><line x1="256" y1="96" x2="376" y2="296" stroke="rgba(148, 163, 184, 0.6)" stroke-width="3" stroke-linecap="round"/><line x1="136" y1="296" x2="256" y2="396" stroke="rgba(148, 163, 184, 0.6)" stroke-width="3" stroke-linecap="round"/><line x1="376" y1="296" x2="256" y2="396" stroke="rgba(148, 163, 184, 0.6)" stroke-width="3" stroke-linecap="round"/><line x1="136" y1="296" x2="376" y2="296" stroke="rgba(148, 163, 184, 0.6)" stroke-width="3" stroke-linecap="round"/>
  <circle cx="256" cy="96" r="32" fill="#60a5fa" opacity="0.3"/><circle cx="256" cy="96" r="28" fill="#60a5fa"/><circle cx="249" cy="89" r="9.799999999999999" fill="rgba(255,255,255,0.25)"/><circle cx="136" cy="296" r="28" fill="#34d399" opacity="0.3"/><circle cx="136" cy="296" r="24" fill="#34d399"/><circle cx="130" cy="290" r="8.399999999999999" fill="rgba(255,255,255,0.25)"/><circle cx="376" cy="296" r="28" fill="#34d399" opacity="0.3"/><circle cx="376" cy="296" r="24" fill="#34d399"/><circle cx="370" cy="290" r="8.399999999999999" fill="rgba(255,255,255,0.25)"/><circle cx="256" cy="396" r="24" fill="#a78bfa" opacity="0.3"/><circle cx="256" cy="396" r="20" fill="#a78bfa"/><circle cx="251" cy="391" r="7" fill="rgba(255,255,255,0.25)"/>
</svg>