<svg xmlns="http://www.w3.org/2000/svg" width="512" height="512" viewBox="0 0 512 512">
  <rect width="512" height="512" rx="102.4" fill="#1a1a2e"/>
  <line x1="256" y1="127.875" x2="159.90625" y2="288.03125" stroke="rgba(148, 163, 184, 0.6)" stroke-width="2.40234375" stroke-linecap="round"/><line x1="256" y1="127.875" x2="352.09375" y2="288.03125" stroke="rgba(148, 163, 184, 0.6)" stroke-width="2.40234375" stroke-linecap="round"/><line x1="159.90625" y1="288.03125" x2="256" y2="368.109375" stroke="rgba(148, 163, 184, 0.6)" stroke-width="2.40234375" stroke-linecap="round"/><line x1="352.09375" y1="288.03125" x2="256" y2="368.109375" stroke="rgba(148, 163, 184, 0.6)" stroke-width="2.40234375" stroke-linecap="round"/><line x1="159.90625" y1="288.03125" x2="352.09375" y2="288.03125" stroke="rgba(148, 163, 184, 0.6)" stroke-width="2.40234375" stroke-linecap="round"/>
  <circle cx="256" cy="127.875" r="25.625" fill="#60a5fa" opacity="0.3"/><circle cx="256" cy="127.875" r="22.421875" fill="#60a5fa"/><circle cx="250.39453125" cy="122.26953125" r="7.847656249999999" fill="rgba(255,255,255,0.25)"/><circle cx="159.90625" cy="288.03125" r="22.421875" fill="#34d399" opacity="0.3"/><circle cx="159.90625" cy="288.03125" r="19.21875" fill="#34d399"/><circle cx="155.1015625" cy="283.2265625" r="6.7265625" fill="rgba(255,255,255,0.25)"/><circle cx="352.09375" cy="288.03125" r="22.421875" fill="#34d399" opacity="0.3"/><circle cx="352.09375" cy="288.03125" r="19.21875" fill="#34d399"/><circle cx="347.2890625" cy="283.2265625" r="6.7265625" fill="rgba(255,255,255,0.25)"/><circle cx="256" cy="368.109375" r="19.21875" fill="#a78bfa" opacity="0.3"/><circle cx="256" cy="368.109375" r="16.015625" fill="#a78bfa"/><circle cx="251.99609375" cy="364.10546875" r="5.60546875" fill="rgba(255,255,255,0.25)"/>
</svg>