<svg xmlns="http://www.w3.org/2000/svg" width="192" height="192" viewBox="0 0 192 192">
  <rect width="192" height="192" rx="38.400000000000006" fill="#1a1a2e"/>
  <line x1="96" y1="47.875" x2="59.90625" y2="108.03125" stroke="rgba(148, 163, 184, 0.6)" stroke-width="0.90234375" stroke-linecap="round"/><line x1="96" y1="47.875" x2="132.09375" y2="108.03125" stroke="rgba(148, 163, 184, 0.6)" stroke-width="0.90234375" stroke-linecap="round"/><line x1="59.90625" y1="108.03125" x2="96" y2="138.109375" stroke="rgba(148, 163, 184, 0.6)" stroke-width="0.90234375" stroke-linecap="round"/><line x1="132.09375" y1="108.03125" x2="96" y2="138.109375" stroke="rgba(148, 163, 184, 0.6)" stroke-width="0.90234375" stroke-linecap="round"/><line x1="59.90625" y1="108.03125" x2="132.09375" y2="108.03125" stroke="rgba(148, 163, 184, 0.6)" stroke-width="0.90234375" stroke-linecap="round"/>
  <circle cx="96" cy="47.875" r="9.625" fill="#60a5fa" opacity="0.3"/><circle cx="96" cy="47.875" r="8.421875" fill="#60a5fa"/><circle cx="93.89453125" cy="45.76953125" r="2.9476562499999996" fill="rgba(255,255,255,0.25)"/><circle cx="59.90625" cy="108.03125" r="8.421875" fill="#34d399" opacity="0.3"/><circle cx="59.90625" cy="108.03125" r="7.21875" fill="#34d399"/><circle cx="58.1015625" cy="106.2265625" r="2.5265625" fill="rgba(255,255,255,0.25)"/><circle cx="132.09375" cy="108.03125" r="8.421875" fill="#34d399" opacity="0.3"/><circle cx="132.09375" cy="108.03125" r="7.21875" fill="#34d399"/><circle cx="130.2890625" cy="106.2265625" r="2.5265625" fill="rgba(255,255,255,0.25)"/><circle cx="96" cy="138.109375" r="7.21875" fill="#a78bfa" opacity="0.3"/><circle cx="96" cy="138.109375" r="6.015625" fill="#a78bfa"/><circle cx="94.49609375" cy="136.60546875" r="2.10546875" fill="rgba(255,255,255,0.25)"/>
</svg>